<?xml version="1.0" encoding="UTF-8"?>
<svg data-bbox="48.737 45.453 218.501 215.115" xmlns="http://www.w3.org/2000/svg" viewBox="0 0 317 317" height="317" width="317" data-type="ugc">
    <g>
        <path fill="#A58FAE" d="m117.032 96.298.628 1.233c6.306 11.944 18.442 16.847 30.415 21.574 4.381 1.738 8.746 3.496 13.056 5.403l1.014.447c12.082 5.404 23.007 13.783 28.295 26.222 3.828 10.734 1.943 21.558-2.711 31.714-4.202 7.958-10.922 15.62-18.632 20.302l-1.24.787c-3.329 2.069-3.329 2.069-5.21 2.439.151-1.865.677-3.274 1.497-4.925 1.14-2.407 1.865-4.832 2.534-7.401l.294-1.122c2.559-10.123 1.334-19.558-3.839-28.598-6.673-11.04-19.663-16.564-30.838-21.827-7.914-3.74-15.263-7.936-20.792-14.917l-.673-.837c-2.885-4.047-4.066-9.953-3.474-14.828.683-3.901 4.469-15.666 9.676-15.666"/>
        <path fill="#702E39" d="M176.982 51.635c5.941 4.563 10.779 11.375 11.928 18.86.842 8.776-.345 16.755-6.021 23.751a79 79 0 0 1-3.194 3.434l-.929.98c-5.619 5.49-13.064 7.68-20.756 7.947-9.172-.321-17.055-4.029-23.325-10.683-5.671-6.568-7.987-14.398-7.601-23.038.71-8.461 4.938-15.309 11.292-20.776 11.657-9.138 26.582-8.456 38.606-.475"/>
        <path fill="#722E39" d="M105.052 144.677c16.712 4.007 34.586 8.66 46.997 21.195l.873.842c4.65 4.859 6.487 11.921 6.672 18.452-.217 7.791-2.695 13.92-6.162 20.792l-.922-.461a80 80 0 0 1-.979-3.657c-3.223-12.271-10.54-22.756-20.216-30.9q-.795-.69-1.589-1.384c-2.587-2.258-5.174-4.505-7.856-6.65-4.466-3.63-8.648-7.611-12.584-11.807l-.695-.731c-1.242-1.353-2.06-2.554-2.617-4.308h-.922z"/>
        <path fill="#732F39" d="M86.622 227.153H97.22c1.379 2.756 2.688 5.402 3.807 8.25l.784 1.958 1.201 3.028q.588 1.482 1.183 2.962l.361.919c.511 1.275.898 2.174 1.88 3.156q1.245-2.924 2.483-5.85.42-.992.843-1.983c1.55-3.636 3.049-7.223 4.046-11.058h.921v-1.382h11.058v2.303l-2.764 1.383c-.078 5.61.168 11.187.461 16.788l.133 2.636q.161 3.189.327 6.378l2.765.921v2.304h-12.901v-2.304l2.303-1.382c.325-1.127.325-1.127.242-2.412l-.016-1.456-.053-1.546-.028-1.566c-.081-3.824-.258-7.641-.605-11.45-1.406 2.655-2.499 5.352-3.557 8.162-.691 1.772-1.477 3.484-2.28 5.207-.888 1.99-1.682 4.016-2.472 6.046-.86 2.194-.86 2.194-1.367 2.701q-1.382.03-2.765 0c-1.835-3.353-3.23-6.857-4.627-10.407-.998-2.526-2.044-5.016-3.202-7.474-.501-1.091-.944-2.198-1.386-3.314a5868 5868 0 0 0-.528 8.501l-.192 3.108-.06.965a75 75 0 0 0-.141 5.396l2.764.921v2.304H85.24v-2.304l1.346-.786c1.455-.872 1.455-.872 1.72-1.971.152-1.188.225-2.357.27-3.555l.082-1.325c.082-1.399.146-2.798.21-4.198l.162-2.8c.84-6.439.84-6.439-.104-12.549a36 36 0 0 0-2.304-.922z"/>
        <path fill="#74303A" d="M163.108 227.153c8.883-.671 8.883-.671 11.468.712.943 1.086 1.634 2.189 2.354 3.434q1.066 1.408 2.16 2.794l1.163 1.531c1.673 2.188 3.424 4.312 5.176 6.437l.725.883.635.769c1.058 1.359 2.042 2.773 3.042 4.174v-17.509l-2.764-.922v-2.303h10.597l.461 2.303-1.353.432c-1.459.759-1.459.759-1.646 1.803l-.076 1.017-.089 1.127q-.143 2.678-.191 5.36l-.026 1.176-.075 3.686c-.103 5.284-.239 10.54-.691 15.809l-.923.04-1.064.047c-1.939.084-1.939.084-2.986-.726-.556-.743-.556-.743-.556-1.665h-.921c-.602-.664-.602-.664-1.325-1.641a243 243 0 0 0-4.55-5.817 713 713 0 0 1-6.224-7.865 205 205 0 0 0-4.028-4.95v18.891l2.765 1.382v2.304h-11.058v-2.304l2.764-.921v-25.802l-2.764-1.383z"/>
        <path fill="#722E38" d="M79.25 232.221c3.155 4.201 4.465 8.474 3.888 13.707-.796 4.677-2.586 8.016-6.192 11.174-4.956 3.073-9.793 3.959-15.583 3.013-4.13-1.101-7.889-3.529-10.22-7.16-2.417-5.013-3.248-10.11-1.4-15.491 1.931-4.421 4.773-7.338 9.147-9.303 7.026-2.706 14.978-1.444 20.36 4.06m-18.38-.2c-3.42 3.556-3.943 7.439-3.9 12.223.125 3.83.948 7.078 3.389 10.093 2.254 2.085 3.84 2.458 6.902 2.401 2.163-.226 3.433-1.217 4.934-2.718 2.862-3.7 3.289-8.531 2.908-13.045-.702-3.381-1.543-6.398-4.147-8.754-3.156-1.99-7.009-2.749-10.086-.2"/>
        <path fill="#722F39" d="M229.456 228.996c.461.46.461.46.513 1.316l-.007 1.104-.004 1.193-.012 1.253-.006 1.259q-.009 1.545-.023 3.09h-3.225l-.423-.943c-1.505-3.228-1.505-3.228-4.185-5.508-2.619-.873-5.422-.872-7.977.231-2.426 1.382-3.488 3.58-4.514 6.087-1.14 4.21-1.061 9.6.886 13.534 1.55 2.498 3.196 3.531 5.952 4.34 2.469.539 4.555.181 7.036-.233l-.461-7.832-4.147-1.843.461-2.304h13.822v2.304l-.892.403c-1.021.439-1.021.439-1.411 1.44-.07.733-.115 1.47-.146 2.206l-.059 1.314-.055 1.375-.06 1.386a962 962 0 0 0-.141 3.394c-6.233 2.65-13.198 4.206-19.813 1.844-4.026-1.714-6.677-3.936-8.754-7.833-1.919-4.847-1.95-9.472-.149-14.349 2.031-4.385 5.424-7.407 9.825-9.294 5.918-2.152 12.235-1.345 17.969 1.066"/>
        <path fill="#742F39" d="M142.374 227.153h4.607a181 181 0 0 1 4.496 10.554l1.219 3.081q.947 2.4 1.889 4.802.919 2.338 1.845 4.672l.567 1.458.537 1.347.465 1.185c.869 1.746 1.973 2.524 3.726 3.31v2.304h-13.822v-2.764l2.303-.461c-.255-1.829-.69-3.363-1.382-5.068v-1.383h-11.058l-.461 2.765-.461.921a67 67 0 0 0 0 2.765l2.304.921v2.304H128.09v-2.764l1.312-.317c1.495-.463 1.495-.463 2.114-1.616l.464-1.298.563-1.509.615-1.711q.563-1.45 1.134-2.897c.696-1.767 1.378-3.539 2.063-5.31l1.654-4.271.404-1.042a848 848 0 0 1 3.961-9.978m.46 9.215-3.686 10.136h7.833c-.979-3.504-2.236-6.8-3.686-10.136z"/>
        <path fill="#722E38" d="M248.347 227.153h4.608a967 967 0 0 1 4.075 9.878q.973 2.395 1.953 4.787a591 591 0 0 1 2.617 6.522l1.204 3.002.547 1.416c.976 2.409 1.523 3.568 3.887 4.804v2.304h-13.822v-2.304l2.764-.921c-.279-2.278-.742-4.209-1.382-6.451H243.74l-.461 2.304c-.295 1.232-.609 2.458-.921 3.686l2.764 1.382v2.304h-11.058v-2.304l1.3-.521c1.765-1.037 2.059-1.684 2.784-3.571l.334-.845q.367-.932.721-1.87c.415-1.092.844-2.178 1.276-3.264a1016 1016 0 0 0 2.886-7.38l.993-2.548a780 780 0 0 0 3.989-10.41m.461 9.215-.371 1.141a169 169 0 0 1-1.99 5.482l-1.325 3.513h7.833c-.979-3.504-2.236-6.8-3.686-10.136z"/>
        <path fill="#803B43" d="M238.211 253.416h.461c.115 3.052.115 3.052-.922 4.607l1.06.085 1.388.117 1.377.113c1.243.146 1.243.146 2.626.607l-.461-1.843 1.382.461v2.303h-11.058v-2.303l1.296-.519c1.711-1.006 2.126-1.816 2.851-3.628"/>
        <path fill="#813E46" d="M170.019 254.798h.921l.317.864c.78 1.262 1.523 1.463 2.909 1.901v2.303h-11.058v-2.303h1.382v.921l7.372-.461-1.843-1.843z"/>
        <path fill="#6C2026" d="m224.683 244.111 1.494.009 1.552.023a951 951 0 0 1 5.413.058l-.46 2.303-1.383.461c-.73 1.461-.635 3.057-.72 4.665l-.06 1.053q-.073 1.288-.141 2.576h-.922a316 316 0 0 1-.057-3.082l-.033-1.733c.115-2.081.453-3.38 1.933-4.861l-11.058-.461c1.828-.914 2.484-1.032 4.442-1.011"/>
        <path fill="#6E222A" d="M169.558 235.446h.922l.46 19.352h-.921c-.78-1.559-.516-3.329-.506-5.043l.002-1.236q.005-1.958.014-3.915l.007-2.651q.008-3.254.022-6.507"/>
        <path fill="#7A333F" d="M195.36 228.535h2.765v.921l-1.343.413c-1.466.79-1.466.79-1.736 1.904a40 40 0 0 0-.319 3.529l-.095 1.247q-.114 1.52-.193 3.044l-1.382.461v-8.294h.921l.432-1.094c.49-1.21.49-1.21.95-2.131"/>
        <path fill="#7C353C" d="M114.728 227.153h11.058v2.303l-.799-.226c-1.039-.233-1.942-.294-3.005-.296l-1.104-.001-1.139.005-1.15-.005c-1.993-.055-1.993-.055-3.861.523z"/>
        <path fill="#7C3940" d="m128.09 257.102.922.921c.935.17.935.17 2.005.191l1.187.054 1.242.043 1.253.054q1.533.065 3.067.119l.461-.921h.921v2.303H128.09z"/>
        <path fill="#71282F" d="M116.571 240.975c1.677 1.677 1.173 4.373 1.239 6.65.028.949.066 1.898.106 2.848l.059 1.805.055 1.664c-.077 1.317-.077 1.317-.998 2.238-.461-.461-.461-.461-.513-1.866q0-.933.007-1.865l.002-.99q.005-1.57.014-3.14l.007-2.125q.008-2.61.022-5.219"/>
        <path fill="#914C57" d="m256.18 252.955.922.461c.223.819.223.819.345 1.814l.137.992c-.021.88-.021.88-.943 1.801-1.209.058-1.209.058-2.304 0v1.383h11.519v.46h-12.44v-2.303l2.764-.922z"/>
        <path fill="#782B32" d="M187.067 227.153h10.597l-.46 1.843-.461-.922-8.294.461v.921h-1.382z"/>
        <path fill="#823E46" d="m86.881 257.073 1.123.029-.921.921h7.833l.46 1.843H85.24c0-2.753 0-2.753 1.641-2.793"/>
        <path fill="#702328" d="M225.31 258.484v.922c-2.49.83-4.843 1.022-7.459 1.036l-.962.013c-1.85-.011-3.277-.235-4.941-1.049v-.461l.802.007q1.817.014 3.632.022l1.262.011c2.592.01 5.103-.501 7.666-.501"/>
        <path fill="#70242A" d="m147.903 257.102 1.382.921c1.204.17 1.204.17 2.554.191l1.498.054 1.563.043 1.58.054q1.93.065 3.863.119c-1.482.869-2.633 1.055-4.341 1.112l-1.431.054-1.485.043-1.506.054q-1.84.065-3.677.119z"/>
        <path fill="#7D353C" d="M88.926 243.74h.921c.092 8.833.092 8.833-.46 11.979l-.922.922c-.054-4.332.053-8.583.46-12.901"/>
        <path fill="#73282E" d="M60.82 228.535q-.891.463-1.786.921l-1.004.519c-.896.403-.896.403-1.818.403l-.317.806c-.604 1.037-.604 1.037-1.727 1.93-1.227.987-1.835 1.873-2.563 3.254-.328-.794-.328-.794-.461-1.843 1.818-2.971 5.88-7.341 9.676-5.99"/>
        <path fill="#72272D" d="m89.847 230.378.922.461c.046 3.876.046 7.669-.46 11.519h-.462c-1.031-3.87-.417-8.059 0-11.98"/>
        <path fill="#6A1D23" d="m245.122 244.201.461 1.843 7.372.46v.922h-8.754c.46-2.304.46-2.304.921-3.225"/>
        <path fill="#72252C" d="M220.241 227.613v.461l-1.164.052c-2.89.169-5.414.428-8.096 1.55-1.061.292-1.688.125-2.719-.22 4.163-2.204 7.339-2.536 11.979-1.843"/>
        <path fill="#803D44" d="M101.827 255.719c.787.753 1.352 1.322 1.843 2.304h1.843l.922-1.382c.288.835.288.835.46 1.843l-.921 1.382c-1.354.231-1.354.231-2.765 0-1.245-1.495-1.382-2.169-1.382-4.147"/>
        <path fill="#803D45" d="M154.814 170.019c1.37 1.168 1.952 2.445 2.649 4.089l.627 1.436c.436 1.472.388 2.239-.051 3.69h-.461l-.253-.794c-.567-1.741-1.145-3.442-1.906-5.109-.605-1.469-.605-1.469-.605-3.312"/>
        <path fill="#722931" d="M170.019 246.044h.461l.46 8.754h-.921c-.682-1.363-.522-2.603-.518-4.118l-.004-1.74c.061-1.514.061-1.514.522-2.896"/>
        <path fill="#6E1C2C" d="M92.151 248.347h.46l.231 3.111.13 1.749c.072 1.143.1 2.289.1 3.434h.922v.922c-1.382-.461-1.382-.461-1.94-1.188-.516-1.583-.345-3.059-.19-4.687l.078-.974q.099-1.183.21-2.367"/>
        <path fill="#945B64" d="M193.517 244.661h.922v8.755h-.461l-.461-3.686h-.46q-.019-1.138-.029-2.275l-.016-1.28c.045-1.053.045-1.053.505-1.514"/>
        <path fill="#7F353C" d="M132.237 170.94c1.768.721 2.841 1.855 4.147 3.226l1.065 1.065.778.778-.461 1.382-.508-.625c-1.189-1.43-2.353-2.736-3.812-3.896l-1.209-1.008z"/>
        <path fill="#7A3642" d="m105.052 144.677 4.147.922c-.522 1.566-.979 1.867-2.304 2.764l-.921-2.303h-.922z"/>
        <path fill="#87444C" d="M200.89 239.593h.921q.054 1.338.086 2.678l.049 1.507c-.135 1.344-.135 1.344-.831 2.213l-.686.513a325 325 0 0 1-.029-2.419l-.016-1.36c.039-1.131.18-2.055.506-3.132"/>
        <path fill="#833D46" d="m189.371 258.023 4.607.922v.921h-4.147z"/>
        <path fill="#6F2126" d="M216.555 229.917c3.219-.233 5.162-.015 7.833 1.843-1.681.56-2.182.153-3.724-.567-1.334-.535-2.687-.67-4.109-.815z"/>
        <path fill="#6E2227" d="m53.909 231.299 1.382.461-1.383.461c-.491.829-.491.829-.921 1.843q-.683 1.157-1.382 2.304c-.315-.814-.315-.814-.461-1.843.56-.886.56-.886 1.353-1.728l.79-.857z"/>
        <path fill="#70232A" d="M214.712 256.18q1.368.08 2.736.173l1.539.097 1.254.191.461.922c-2.267.076-3.918.114-5.99-.922z"/>
        <path fill="#73262C" d="M102.749 241.897h.921c1.58 3.357 1.58 3.357 1.382 5.529-1.409-1.73-2.303-3.263-2.303-5.529"/>
        <path fill="#7F383F" d="M142.374 227.153h4.607l-.461 1.382-1.555-.029c-1.593-.093-1.593-.093-2.591.49z"/>
        <path fill="#7D3A43" d="M147.903 103.67q1.382-.03 2.764 0l.461.461q.916.25 1.843.461c-1.691.724-2.508.988-4.32.518l-1.209-.518z"/>
        <path fill="#7E373C" d="m62.519 258.916 1.128.272.859.217v.922q-.994-.08-1.987-.173l-1.118-.097c-1.042-.191-1.042-.191-2.424-1.112 1.519-.507 2.03-.402 3.542-.029"/>
        <path fill="#76282D" d="M209.644 251.573h.921c.695.806.695.806 1.44 1.843l.753 1.036c.188.267.377.533.572.807h-1.382c-2.304-2.465-2.304-2.465-2.304-3.686"/>
        <path fill="#6B2024" d="M182.92 240.515c1.938.692 2.644 1.974 3.686 3.686l-.921.46q-.694-.905-1.383-1.814l-.777-1.02c-.605-.852-.605-.852-.605-1.312"/>
        <path fill="#7B353C" d="m226.231 235.446.922.461v.921l1.843.461v.922a48 48 0 0 1-2.304 0c-.461-.461-.461-.461-.49-1.642z"/>
        <path fill="#6A1D21" d="M170.019 254.798h.921l.375.893c.495 1.103.495 1.103 1.929 1.411v.921c-1.094-.144-1.094-.144-2.304-.46-.921-1.383-.921-1.383-.921-2.765"/>
        <path fill="#8A4D50" d="M262.631 252.033c1.237 1.238 1.41 2.478 1.843 4.147-1.382-.461-1.382-.461-1.958-1.555-.346-1.209-.346-1.209.115-2.592"/>
        <path fill="#82454C" d="M248.347 227.153h4.608v1.382l-4.608-.922z"/>
        <path fill="#6E2329" d="m111.964 152.971 1.382.461v.921l.893.403c.95.519.95.519 1.411 1.44-1.745-.249-2.559-.975-3.686-2.304z"/>
        <path fill="#7C353E" d="M74.182 248.808h.46c.116 3.053.116 3.053-.921 4.608h-.922z"/>
        <path fill="#7B363E" d="M218.859 244.201h3.225l-1.843.46v1.843l-1.382-.46z"/>
        <path fill="#7F3D43" d="M152.51 201.35c.965 1.568 1.004 2.789.922 4.608l-.922-.461c-.592-2.962-.592-2.962 0-4.147"/>
        <path fill="#7D393E" d="M130.394 61.741h.921c-.374 1.584-.374 1.584-.921 3.226l-1.382.46c.864-3.167.864-3.167 1.382-3.686"/>
        <path fill="#712429" d="m204.115 233.603.921.461-1.843 3.686h-.46c-.171-2.552-.171-2.552.691-3.628z"/>
        <path fill="#84444A" d="M195.36 228.535h2.765v.921l-3.225 1.383z"/>
        <path fill="#6C1D24" d="M148.363 163.108c1.551.664 2.539 1.535 3.686 2.764l-.46.922q-.81-.659-1.613-1.325l-.907-.745-.706-.695z"/>
        <path fill="#813F46" d="M122.561 150.206c3.11.346 3.11.346 4.147 1.383l-.922.46a62 62 0 0 1-3.225-1.382z"/>
        <path fill="#550000" d="m154.814 168.176.921.461-.921.46z"/>
        <path fill="#BFBFBF" d="m69.113 232.221.922.461z"/>
        <path fill="#7F7F7F" d="m187.067 143.756.921.461z"/>
        <path fill="#7F7F7F" d="m167.715 105.513.922.461z"/>
        <path fill="#000000" d="m135.923 52.065.921.461z"/>
    </g>
</svg>
