<?xml version="1.0" encoding="UTF-8"?>
<svg data-bbox="0 5.198 157.922 36.491" xmlns="http://www.w3.org/2000/svg" viewBox="0 0 163 46" height="46" width="163" data-type="color">
    <g>
        <path fill="#ffffff" d="M2.413 16.238c1.642 3.778 6.35 4.58 9.707 6.2 1.904.92 3.746 2.01 5.048 3.714 3.243 4.243 1.056 9.673-2.803 12.63-.598.47-1.301.916-2.02 1.167.781-1.308 1.431-3.58 1.401-5.088-.039-3.836-2.667-6.235-5.935-7.813C4.88 25.63.481 24.033.498 20.072c.007-1.559.827-2.78 1.915-3.834" data-color="1"/>
        <path fill="#ffffff" d="M11.004 5.21a6.573 6.573 0 1 1 .782 13.124 6.573 6.573 0 0 1-.782-13.123" data-color="1"/>
        <path fill="#ffffff" d="M0 26.799c.385.042 1.298.297 1.669.407 1.61.48 3.32 1.05 4.853 1.727 1.948.86 3.938 2.23 4.69 4.317.696 1.924.397 3.768-.426 5.574-.158.33-.357.66-.54.978-.37-2.698-2.098-5.216-4.048-7.034-1.216-1.134-2.528-2.13-3.75-3.244C1.687 28.831.532 27.684 0 26.8" data-color="1"/>
        <path fill="#ffffff" d="M48.507 22.593q0 3.92-1.486 6.669-1.475 2.75-4.025 4.2-2.54 1.44-5.71 1.44-3.194 0-5.733-1.451t-4.014-4.2-1.474-6.658q0-3.92 1.474-6.67t4.014-4.188q2.538-1.45 5.733-1.45 3.17 0 5.71 1.45 2.55 1.44 4.025 4.189 1.486 2.75 1.486 6.669m-5.137 0q0-2.54-.76-4.282-.75-1.744-2.118-2.645-1.369-.9-3.206-.9t-3.206.9-2.13 2.645q-.748 1.744-.748 4.282t.749 4.282q.76 1.744 2.129 2.644t3.206.901 3.206-.9q1.368-.902 2.117-2.645.762-1.744.761-4.282m8.796 11.981V16.602h4.75v3.171h.21q.563-1.58 1.873-2.492 1.31-.913 3.136-.913 1.848 0 3.147.925 1.299.912 1.731 2.48h.188q.55-1.544 1.989-2.469 1.45-.936 3.428-.936 2.516 0 4.083 1.603 1.58 1.592 1.58 4.517v12.086h-4.973V23.47q0-1.497-.795-2.246-.796-.75-1.99-.749-1.356 0-2.117.866-.76.854-.76 2.258v10.975h-4.833V23.365q0-1.321-.76-2.106-.75-.784-1.978-.784-.831 0-1.497.421-.655.41-1.042 1.159-.386.736-.386 1.731v10.788zm35.177.34q-1.72 0-3.066-.597a4.93 4.93 0 0 1-2.13-1.79q-.771-1.194-.771-2.972 0-1.498.55-2.516a4.45 4.45 0 0 1 1.497-1.638 7.3 7.3 0 0 1 2.153-.936q1.217-.316 2.55-.445 1.569-.163 2.528-.304.96-.152 1.392-.445.433-.292.433-.865v-.07q0-1.113-.702-1.72-.69-.609-1.965-.609-1.346 0-2.141.597-.796.585-1.053 1.474l-4.61-.374q.351-1.638 1.38-2.832 1.03-1.205 2.656-1.849 1.638-.654 3.791-.655 1.498 0 2.867.351 1.38.351 2.445 1.088a5.3 5.3 0 0 1 1.697 1.896q.62 1.145.62 2.75v12.121h-4.727v-2.492h-.14a5.1 5.1 0 0 1-1.159 1.486 5.4 5.4 0 0 1-1.743.994q-1.018.351-2.352.351m1.427-3.44q1.1 0 1.943-.433a3.44 3.44 0 0 0 1.322-1.194q.48-.75.48-1.697v-1.907a2.7 2.7 0 0 1-.644.281q-.398.117-.901.222-.502.094-1.006.176l-.913.129a6.2 6.2 0 0 0-1.533.41q-.655.28-1.017.76-.363.468-.363 1.17 0 1.017.737 1.556.749.526 1.895.526m17.545-7.29v10.39h-4.984v-17.97h4.75v3.171h.211a5 5 0 0 1 2-2.48q1.404-.925 3.405-.925 1.872 0 3.265.82 1.392.818 2.164 2.34.772 1.509.772 3.603v11.443h-4.984V24.02q.012-1.65-.842-2.574-.855-.936-2.352-.936-1.007 0-1.779.433-.76.433-1.193 1.264-.421.819-.433 1.977m23.608 17.504q-2.421 0-4.153-.667-1.72-.656-2.738-1.79a5.5 5.5 0 0 1-1.322-2.551l4.61-.62a3 3 0 0 0 .667 1.006q.456.468 1.205.749.76.293 1.848.293 1.627 0 2.68-.796 1.065-.784 1.064-2.633v-3.288h-.21q-.328.75-.983 1.416-.655.667-1.685 1.088-1.029.422-2.457.422-2.024 0-3.685-.937-1.65-.947-2.633-2.89-.97-1.953-.971-4.937 0-3.054.994-5.101.995-2.047 2.645-3.066a6.83 6.83 0 0 1 3.638-1.018q1.51 0 2.528.515 1.017.503 1.638 1.264.632.748.971 1.474h.187v-3.019h4.949V34.75q0 2.295-1.123 3.838-1.123 1.545-3.112 2.317-1.978.783-4.552.784m.106-11.115q1.205 0 2.036-.597.841-.609 1.287-1.732.456-1.134.456-2.714t-.445-2.738q-.444-1.17-1.287-1.814-.842-.643-2.047-.643-1.229 0-2.071.667-.843.654-1.276 1.825t-.433 2.703q0 1.556.433 2.69.445 1.124 1.276 1.744.842.609 2.071.609m17.772 4.34q-1.72 0-3.065-.596a4.93 4.93 0 0 1-2.129-1.79q-.773-1.194-.773-2.972 0-1.498.55-2.516a4.46 4.46 0 0 1 1.498-1.638 7.3 7.3 0 0 1 2.153-.936q1.216-.316 2.55-.445a65 65 0 0 0 2.528-.304q.959-.152 1.392-.445.433-.292.433-.865v-.07q0-1.113-.702-1.72-.69-.609-1.966-.609-1.345 0-2.141.597-.795.585-1.053 1.474l-4.61-.374q.35-1.638 1.381-2.832 1.03-1.205 2.656-1.849 1.637-.654 3.791-.655 1.497 0 2.866.351a7.5 7.5 0 0 1 2.446 1.088 5.3 5.3 0 0 1 1.696 1.896q.62 1.145.62 2.75v12.121h-4.727v-2.492h-.14a5.1 5.1 0 0 1-1.158 1.486 5.4 5.4 0 0 1-1.744.994q-1.017.351-2.352.351m1.428-3.44q1.1 0 1.942-.432a3.43 3.43 0 0 0 1.322-1.194q.48-.75.48-1.697v-1.907q-.234.152-.643.281-.399.117-.901.222-.504.094-1.007.176l-.912.129a6.2 6.2 0 0 0-1.533.41q-.655.28-1.018.76-.363.468-.363 1.17 0 1.017.737 1.556.75.526 1.896.526" data-color="1"/>
    </g>
</svg>
